[Header]
FileType HTR
DataType HTRS
FileVersion 1
NumSegments 22
NumFrames 4
DataFrameRate 24
EulerRotationOrder ZYX
CalibrationUnits mm
RotationUnits Degrees
GlobalAxisofGravity Y
BoneLengthAxis Y
ScaleFactor 1.0
[SegmentNames&Hierarchy]
reference	GLOBAL
Hips	reference
Spine	Hips
Spine1	Spine
Neck	Spine1
Head	Neck
LeftShoulder	Spine1
LeftArm	LeftShoulder
LeftForeArm	LeftArm
LeftHand	LeftForeArm
RightShoulder	Spine1
RightArm	RightShoulder
RightForeArm	RightArm
RightHand	RightForeArm
LeftUpLeg	Hips
LeftLeg	LeftUpLeg
LeftFoot	LeftLeg
LeftToeBase	LeftFoot
RightUpLeg	Hips
RightLeg	RightUpLeg
RightFoot	RightLeg
RightToeBase	RightFoot
[BasePosition]
reference	0	0	0	0	0	0	1
Hips	0	0	0	0	0	0	1
Spine	0	0	0	0	-0	90	1
Spine1	0	0	0	0	0	0	1
Neck	0	0	0	-7.352430803	-7.352430803	90	1
Head	0	0	0	0	-0	90	1
LeftShoulder	0	0	0	0	0	0	1
LeftArm	0	0	0	0	0	0	1
LeftForeArm	0	0	0	0	0	0	1
LeftHand	0	0	0	0	0	0	1
RightShoulder	0	0	0	0	-0	180	1
RightArm	0	0	0	0	-0	180	1
RightForeArm	0	0	0	0	-0	180	1
RightHand	0	0	0	0	-0	180	1
LeftUpLeg	0	0	0	0	-0	-90	1
LeftLeg	0	0	0	0	-0	-90	1
LeftFoot	0	0	0	66.57150701	-66.57150701	-90	1
LeftToeBase	0	0	0	0	-90	0	1
RightUpLeg	0	0	0	0	-0	-90	1
RightLeg	0	0	0	0	-0	-90	1
RightFoot	0	0	0	66.57150701	-66.57150701	-90	1
RightToeBase	0	0	0	0	-90	0	1
[reference]
50	0	0	0	0	-0	0	1.0
51	0	0	0	0	-0	0	1.0
52	0	0	0	0	-0	0	1.0
53	0	0	0	0	-0	0	1.0
[Hips]
50	1.180799603	9.740772247	1.010703564	25.16651726	-97.81848145	-3.737796307	1.0
51	0.7626618147	8.908242226	0.9911594391	10.87892628	-98.45810699	4.700406075	1.0
52	0.5734760761	7.947090149	0.9722273946	0.8030319214	-99.32527924	11.0749321	1.0
53	0.6499818563	7.495093822	1.012318611	-4.241111755	-103.3517838	22.45666504	1.0
[Spine]
50	0	0.7478299737	0	0.3188017607	1.809977412	-89.91646576	1.0
51	0	0.7478299737	0	-0.9756916761	1.388385773	-89.79056549	1.0
52	0	0.7478299737	0	0.8267484307	1.506349683	-87.68736267	1.0
53	0	0.7478299737	0	-4.705235004	2.150386572	-87.10490417	1.0
[Spine1]
50	0	2.049309969	0	-8.08010006	0.6433137655	0.4037598968	1.0
51	0	2.049309969	0	-9.567943573	0.581294477	0.933467567	1.0
52	0	2.049309969	0	-16.23449707	0.435043633	-0.07056393474	1.0
53	0	2.049309969	0	-10.10214424	0.8642505407	2.149253607	1.0
[Neck]
50	0	2.231709957	0	-8.968269348	9.876728058	-87.00596619	1.0
51	0	2.231709957	0	4.157047272	10.09999466	-87.33553314	1.0
52	0	2.231709957	0	10.69246101	10.58099937	-85.20503998	1.0
53	0	2.231709957	0	-2.994258404	12.64630604	-85.59770966	1.0
[Head]
50	0	1.413589954	0.1823999882	-4.693664551	2.936916828	-91.89646912	1.0
51	0	1.413589954	0.1823999882	-11.48778343	3.017997026	-89.76182556	1.0
52	0	1.413589954	0.1823999882	-12.6964035	3.984409332	-92.31756592	1.0
53	0	1.413589954	0.1823999882	-8.230859756	5.722570419	-92.83743286	1.0
[LeftShoulder]
50	0.3649300039	1.825889945	-0.04271000251	-13.63060284	-10.4082489	0.2119480819	1.0
51	0.3649300039	1.825889945	-0.04271000251	-11.64433861	-9.785529137	0.2564552426	1.0
52	0.3649300039	1.825889945	-0.04271000251	-15.10936737	-7.908801079	2.434317112	1.0
53	0.3649300039	1.825889945	-0.04271000251	-16.89387894	-7.674831867	5.018303394	1.0
[LeftArm]
50	1.24003005	0	0	53.74629211	-1.032523632	-79.6964798	1.0
51	1.24003005	0	0	52.76905823	-3.825232506	-78.55249023	1.0
52	1.24003005	0	0	52.63747406	-4.483975887	-79.77035522	1.0
53	1.24003005	0	0	50.40158463	-9.077466965	-81.3677063	1.0
[LeftForeArm]
50	2.847419977	0	0	-110.6544037	-40.84546661	138.836441	1.0
51	2.847419977	0	0	-113.5716705	-39.52630997	142.3725128	1.0
52	2.847419977	0	0	-116.3292465	-38.23291779	145.7300873	1.0
53	2.847419977	0	0	-113.8816376	-35.01284027	148.6500397	1.0
[LeftHand]
50	2.258270025	0	0	-22.6408577	-18.9961338	8.966021538	1.0
51	2.258270025	0	0	-21.92680168	-17.52248192	9.0686903	1.0
52	2.258270025	0	0	-20.75891876	-15.65299797	8.156497002	1.0
53	2.258270025	0	0	-18.34689903	-14.85605145	8.743386269	1.0
[RightShoulder]
50	-0.3646599948	1.825889945	-0.04271000251	-12.51526833	12.41685772	178.7906494	1.0
51	-0.3646599948	1.825889945	-0.04271000251	-10.49249077	12.60271931	180.3660889	1.0
52	-0.3646599948	1.825889945	-0.04271000251	-13.72749901	9.712369919	178.3407898	1.0
53	-0.3646599948	1.825889945	-0.04271000251	-17.38703346	9.583339691	174.6578369	1.0
[RightArm]
50	-1.24003005	0	0	64.97943115	6.62456131	-101.0364761	1.0
51	-1.24003005	0	0	62.44201279	7.873809338	-103.0934067	1.0
52	-1.24003005	0	0	61.74040985	8.582095146	-101.6750183	1.0
53	-1.24003005	0	0	57.94484711	11.71629524	-101.0149765	1.0
[RightForeArm]
50	-2.847419977	0	0	-79.99724579	35.37040329	46.38649368	1.0
51	-2.847419977	0	0	-83.20072174	33.92101288	42.28085709	1.0
52	-2.847419977	0	0	-84.18417358	32.59174347	39.78447723	1.0
53	-2.847419977	0	0	-86.5951004	32.47401047	37.40570068	1.0
[RightHand]
50	-2.258270025	0	0	-8.295938492	9.373194695	160.7042236	1.0
51	-2.258270025	0	0	-8.090350151	8.59039402	160.880188	1.0
52	-2.258270025	0	0	-7.620161057	8.339298248	162.4939575	1.0
53	-2.258270025	0	0	-6.304587841	8.211959839	164.6197357	1.0
[LeftUpLeg]
50	0.9119900465	0	0	-53.2998848	6.867702484	111.6656723	1.0
51	0.9119900465	0	0	-35.9552002	-1.174270391	109.8431244	1.0
52	0.9119900465	0	0	-33.15422821	-0.7799221277	105.1903381	1.0
53	0.9119900465	0	0	-49.01222229	6.258802891	101.1472855	1.0
[LeftLeg]
50	0	-4.371409893	0	52.73831177	14.69963932	65.68768311	1.0
51	0	-4.371409893	0	40.3778801	11.94070721	74.86335754	1.0
52	0	-4.371409893	0	51.78968048	5.033567429	76.72710419	1.0
53	0	-4.371409893	0	74.09358215	-3.273046494	71.70274353	1.0
[LeftFoot]
50	0	-3.918009996	0	-30.87526131	100.6789246	-9.368846893	1.0
51	0	-3.918009996	0	15.87867546	85.16156006	44.97808075	1.0
52	0	-3.918009996	0	62.44681931	75.06164551	126.3938293	1.0
53	0	-3.918009996	0	111.8521576	76.65169525	179.1426544	1.0
[LeftToeBase]
50	0	-0.5927900076	1.367989898	0	0	0	1.0
51	0	-0.5927900076	1.367989898	0	0	0	1.0
52	0	-0.5927900076	1.367989898	0	0	0	1.0
53	0	-0.5927900076	1.367989898	0	0	0	1.0
[RightUpLeg]
50	-0.9119900465	0	0	-53.3684082	-23.16233444	105.1584015	1.0
51	-0.9119900465	0	0	-31.1710434	-16.04944229	97.34784698	1.0
52	-0.9119900465	0	0	-34.09935379	-13.41107941	100.9952164	1.0
53	-0.9119900465	0	0	-49.1456604	-7.271940708	104.3134003	1.0
[RightLeg]
50	0	-4.371409893	0	40.74732208	6.753486156	80.56999207	1.0
51	0	-4.371409893	0	26.60383987	-0.4924755096	79.63973999	1.0
52	0	-4.371409893	0	44.64821243	6.726657867	73.70804596	1.0
53	0	-4.371409893	0	62.58906555	10.48326683	77.94940948	1.0
[RightFoot]
50	0	-3.918009996	0	90.41896057	54.78149033	109.1546783	1.0
51	0	-3.918009996	0	71.57519531	54.19939804	101.2589645	1.0
52	0	-3.918009996	0	41.16949463	55.12757874	104.3647308	1.0
53	0	-3.918009996	0	29.07311249	53.03552628	91.84127045	1.0
[RightToeBase]
50	0	-0.5927900076	1.367989898	0	0	0	1.0
51	0	-0.5927900076	1.367989898	0	0	0	1.0
52	0	-0.5927900076	1.367989898	0	0	0	1.0
53	0	-0.5927900076	1.367989898	0	0	0	1.0
[EndOfFile]
